<svg width="211" height="69" viewBox="0 0 211 69" fill="none" xmlns="http://www.w3.org/2000/svg">
<path d="M143.846 3.61815C145.58 0.221539 149.669 -0.821962 155.476 0.650375C161.282 2.12277 168.479 6.0286 175.943 11.7578C183.408 17.4871 190.721 24.7184 196.739 32.3223C202.758 39.9259 207.145 47.4746 209.215 53.791C211.285 60.1076 210.922 64.8365 208.183 67.2392C205.443 69.6419 200.482 69.5835 194.072 67.0732C188.401 64.8521 181.88 60.8192 175.316 55.501L175.344 56.9512C175.351 57.3299 174.834 57.4705 174.589 57.1562L172.98 55.0908C172.871 54.9504 172.681 54.8871 172.509 54.9336L169.982 55.6201C169.598 55.7245 169.268 55.3015 169.501 55.0029L171.033 53.04C171.137 52.9065 171.134 52.7215 171.024 52.581L169.416 50.5156C169.171 50.2015 169.484 49.7995 169.873 49.9287L172.43 50.7812C172.604 50.8391 172.791 50.7877 172.896 50.6543L174.428 48.6924C174.661 48.3938 175.184 48.5677 175.191 48.9463L175.239 51.4355C175.242 51.6049 175.362 51.7594 175.536 51.8174L178.092 52.6699C178.48 52.7996 178.49 53.3084 178.106 53.4131L176.376 53.8828C181.902 58.2513 187.36 61.5706 192.14 63.4424C197.835 65.6728 202.243 65.7247 204.677 63.5898C207.111 61.455 207.433 57.254 205.594 51.6416C203.754 46.0291 199.857 39.3208 194.509 32.5644C189.161 25.8082 182.664 19.3836 176.031 14.293C169.399 9.20225 163.004 5.73212 157.845 4.42381C152.685 3.11553 149.052 4.04249 147.512 7.06053C146.788 8.47751 146.545 10.3178 146.772 12.5019L150.215 8.33006C150.807 7.61244 151.973 8.02112 151.987 8.95116L152.167 21.1738C152.178 21.9186 151.399 22.4139 150.729 22.0879L139.745 16.7412C138.909 16.3341 139.033 15.1053 139.934 14.873L143.837 13.8662C142.62 9.56085 142.609 6.03987 143.846 3.61815ZM156.953 25.8213C158.655 25.8213 160.229 26.0449 161.676 26.4922C163.15 26.9115 164.413 27.5683 165.462 28.4629C166.511 29.3575 167.334 30.4905 167.93 31.8603C168.525 33.2022 168.822 34.8097 168.822 36.6826C168.822 38.4719 168.567 40.0379 168.057 41.3799C167.546 42.7217 166.823 43.8538 165.887 44.7764C164.951 45.6709 163.816 46.3417 162.483 46.789C161.179 47.2364 159.718 47.4609 158.102 47.4609C156.882 47.4609 155.748 47.2785 154.698 46.915V53.8769C154.415 53.9608 153.961 54.0441 153.337 54.1279C152.713 54.2397 152.074 54.2959 151.422 54.2959C150.798 54.2959 150.231 54.2537 149.721 54.1699C149.239 54.0861 148.828 53.9185 148.487 53.667C148.147 53.4154 147.891 53.0655 147.721 52.6181C147.551 52.1989 147.466 51.6399 147.466 50.9414V30.8115C147.466 30.0569 147.622 29.442 147.934 28.9668C148.274 28.4915 148.728 28.0574 149.295 27.666C150.174 27.1069 151.267 26.6597 152.571 26.3242C153.876 25.9888 155.337 25.8213 156.953 25.8213ZM97.79 25.8213C99.3214 25.8213 100.711 25.9747 101.959 26.2822C103.235 26.5897 104.313 27.065 105.192 27.708C106.1 28.323 106.795 29.1201 107.277 30.0986C107.759 31.0491 108 32.1821 108 33.4961V42.8896C108 43.6162 107.787 44.2172 107.362 44.6924C106.965 45.1397 106.482 45.5317 105.915 45.8672C104.072 46.9573 101.476 47.5019 98.1299 47.5019C96.6268 47.5019 95.2654 47.3625 94.0459 47.083C92.8548 46.8035 91.8196 46.3842 90.9404 45.8252C90.0896 45.2661 89.4226 44.5531 88.9404 43.6865C88.4867 42.8199 88.2598 41.8131 88.2598 40.667C88.2598 38.7381 88.8413 37.2561 90.0039 36.2217C91.1668 35.1873 92.9681 34.5436 95.4072 34.292L100.98 33.7051V33.4121C100.98 32.6013 100.611 32.0279 99.874 31.6924C99.165 31.329 98.1298 31.1474 96.7686 31.1474C95.6908 31.1475 94.6411 31.2588 93.6201 31.4824C92.5994 31.706 91.6778 31.9859 90.8555 32.3213C90.4868 32.0697 90.1742 31.6925 89.9189 31.1894C89.6637 30.6583 89.5362 30.1128 89.5361 29.5537C89.5361 28.8269 89.7066 28.2533 90.0469 27.834C90.4156 27.3868 90.9688 27.0096 91.7061 26.7021C92.5285 26.3946 93.4927 26.171 94.5986 26.0312C95.7331 25.8915 96.7974 25.8213 97.79 25.8213ZM82.7803 21.292C83.8296 21.292 84.7235 21.5296 85.4609 22.0049C86.1983 22.4522 86.5674 23.2072 86.5674 24.2695C86.5674 24.8845 86.4115 25.7791 86.0996 26.9531C85.816 28.1273 85.4323 29.4558 84.9502 30.9375C84.4964 32.3912 83.9716 33.9153 83.376 35.5088C82.8088 37.1021 82.2273 38.6115 81.6318 40.0371C81.0646 41.435 80.5261 42.6801 80.0156 43.7705C79.5052 44.8327 79.0942 45.5738 78.7822 45.9931C78.3852 46.3286 77.7608 46.6214 76.9102 46.873C76.0877 47.1246 75.1792 47.251 74.1865 47.251C72.9955 47.2509 71.9748 47.0825 71.124 46.7471C70.2732 46.3836 69.6919 45.8943 69.3799 45.2793C69.0679 44.6363 68.6842 43.812 68.2305 42.8056C67.7767 41.7713 67.2946 40.6251 66.7842 39.3672C66.302 38.1091 65.7918 36.7806 65.2529 35.3828C64.7424 33.957 64.2458 32.5172 63.7637 31.0635C63.2816 29.6098 62.8277 28.1839 62.4023 26.7861C61.9769 25.3883 61.6079 24.0739 61.2959 22.8437C61.693 22.4523 62.2607 22.1024 62.998 21.7949C63.7637 21.4595 64.5721 21.292 65.4229 21.292C66.4722 21.292 67.3233 21.5156 67.9756 21.9629C68.6563 22.3822 69.1529 23.1793 69.4648 24.3535C70.2306 27.0932 70.996 29.7212 71.7617 32.2373C72.5558 34.7253 73.3787 37.3254 74.2295 40.0371H74.4844C75.2501 37.4092 76.0301 34.5436 76.8242 31.4404C77.6467 28.3372 78.4276 25.2481 79.165 22.1728C79.6754 21.9213 80.2142 21.7116 80.7812 21.5439C81.3767 21.3762 82.0431 21.292 82.7803 21.292ZM134.928 25.8213C136.005 25.8213 137.055 25.9607 138.076 26.2402C139.126 26.5198 140.048 26.967 140.842 27.582C141.664 28.1691 142.317 28.9662 142.799 29.9726C143.281 30.9511 143.521 32.1534 143.521 33.5791V46.789C143.238 46.8729 142.784 46.9571 142.16 47.041C141.565 47.1249 140.94 47.167 140.288 47.167C139.664 47.167 139.097 47.1248 138.587 47.041C138.105 46.9571 137.693 46.7897 137.353 46.5381C137.012 46.2865 136.743 45.9505 136.545 45.5312C136.375 45.0839 136.289 44.5104 136.289 43.8115V33.789C136.289 32.9504 136.049 32.3488 135.566 31.9853C135.084 31.594 134.432 31.3985 133.609 31.3984C133.212 31.3984 132.787 31.4967 132.333 31.6924C131.879 31.8601 131.538 32.0416 131.312 32.2373C131.34 32.3491 131.354 32.4614 131.354 32.5732V46.789C131.043 46.8729 130.574 46.9571 129.95 47.041C129.355 47.1248 128.745 47.167 128.121 47.167C127.497 47.167 126.929 47.1249 126.419 47.041C125.937 46.9571 125.526 46.7895 125.186 46.5381C124.845 46.2865 124.575 45.9505 124.377 45.5312C124.207 45.0839 124.122 44.5104 124.122 43.8115V33.789C124.122 32.9504 123.852 32.3488 123.313 31.9853C122.803 31.5941 122.179 31.3984 121.441 31.3984C120.931 31.3985 120.492 31.4827 120.123 31.6504C119.754 31.7901 119.442 31.9295 119.187 32.0693V46.789C118.903 46.8729 118.449 46.9572 117.825 47.041C117.23 47.1248 116.605 47.167 115.953 47.167C115.329 47.167 114.762 47.1248 114.252 47.041C113.77 46.9571 113.358 46.7897 113.018 46.5381C112.677 46.2865 112.408 45.9505 112.21 45.5312C112.04 45.0839 111.954 44.5104 111.954 43.8115V31.1474C111.954 30.3927 112.11 29.791 112.422 29.3437C112.762 28.8964 113.217 28.4773 113.784 28.0859C114.748 27.415 115.939 26.8695 117.357 26.4502C118.804 26.0308 120.307 25.8213 121.867 25.8213C123.03 25.8213 124.164 25.9888 125.271 26.3242C126.405 26.6317 127.384 27.107 128.206 27.75C129.057 27.1909 130.007 26.7296 131.057 26.3662C132.134 26.0028 133.425 25.8213 134.928 25.8213ZM26.6113 12.6846C30.0456 12.6846 32.7874 13.4497 34.8369 14.9785C37.0111 16.6029 38.0985 18.8414 38.0986 21.6943C38.0986 24.4109 37.1911 26.9371 35.377 29.2715C33.7013 31.4008 31.5547 33.0458 28.9375 34.206C29.6715 35.9533 30.219 37.1004 30.5791 37.6465C31.3129 38.7381 32.0189 39.284 32.6973 39.2842C33.3896 39.2842 34.124 39.1137 34.8994 38.7724C35.6749 38.4312 36.4158 37.9942 37.1221 37.4619C37.2487 37.368 37.3729 37.2723 37.4951 37.1767C37.5881 36.541 37.7511 35.9396 37.9844 35.373C38.386 34.4312 38.9326 33.5367 39.625 32.6904C40.3174 31.8305 41.1413 31.0388 42.0967 30.3154C43.0522 29.5919 44.0912 28.9709 45.2129 28.4521C47.5949 27.3191 50.026 26.7529 52.5049 26.7529C54.2911 26.753 55.517 27.3055 56.1816 28.4111C56.4169 28.7933 56.5342 29.3058 56.5342 29.9473C56.5341 30.575 56.3684 31.1964 56.0361 31.8105C55.7177 32.4247 55.2813 32.9843 54.7275 33.4892C54.1736 33.9807 53.5289 34.4176 52.7949 34.7998C52.0611 35.1683 51.279 35.4897 50.4482 35.7627C48.9804 36.2541 47.2975 36.6087 45.4004 36.8271C46.2037 38.2466 48.0246 38.957 50.8633 38.957C52.6359 38.957 54.3052 38.5338 55.8701 37.6875C57.4488 36.8275 58.7992 35.5638 59.9209 33.8984C60.5436 33.8577 60.8554 34.1105 60.8555 34.6562C60.8554 35.2705 60.4812 36.1581 59.7334 37.3183C58.9994 38.465 58.3071 39.3936 57.6562 40.1035C57.0192 40.8133 56.2993 41.4756 55.4961 42.0898C54.7067 42.6905 53.8544 43.2087 52.9404 43.6455C50.9601 44.601 48.8755 45.0791 46.6875 45.0791C42.284 45.079 39.4241 43.8779 38.1084 41.4756C38.023 41.3171 37.9459 41.1539 37.876 40.9873C37.4345 41.5064 36.9615 42.0109 36.457 42.499C35.7093 43.2087 34.9063 43.8368 34.0479 44.3828C32.1644 45.5568 30.239 46.1435 28.2725 46.1435C24.1597 46.1433 22.1035 43.3722 22.1035 37.8301C22.1035 37.0658 22.1311 36.3014 22.1865 35.5371C20.1508 35.3596 18.7034 34.3967 17.8447 32.6494C17.5402 32.0489 17.3458 31.3393 17.2627 30.5205C13.9114 36.7042 11.0793 40.9018 8.7666 43.1133C7.22961 44.5874 5.83805 45.325 4.5918 45.3252C3.22081 45.3252 2.11234 44.7648 1.26758 43.6455C0.422993 42.5262 7.93199e-05 40.9771 0 38.998C0 37.9469 0.166671 36.7381 0.499023 35.373C0.831371 33.9944 1.31617 32.5748 1.95312 31.1142C2.60398 29.6537 3.38683 28.1861 4.30078 26.7119C5.22863 25.2376 6.28089 23.8172 7.45801 22.4521C8.63511 21.0871 9.93026 19.8106 11.3428 18.623C12.7553 17.4355 14.2648 16.398 15.8711 15.5107C19.3194 13.6269 22.8999 12.6846 26.6113 12.6846ZM97.96 38.6543C97.1658 38.7102 96.5135 38.8776 96.0029 39.1572C95.4925 39.4368 95.2373 39.8559 95.2373 40.415C95.2373 40.9741 95.4497 41.4354 95.875 41.7988C96.3288 42.1343 97.0806 42.3027 98.1299 42.3027C98.612 42.3027 99.1369 42.2606 99.7041 42.1767C100.3 42.0649 100.74 41.9246 101.023 41.7568V38.4023L97.96 38.6543ZM157.208 31.3984C156.669 31.3984 156.187 31.4686 155.762 31.6084C155.336 31.7202 154.967 31.8606 154.655 32.0283V41.2539C154.996 41.4216 155.365 41.561 155.762 41.6728C156.159 41.7847 156.584 41.8408 157.038 41.8408C159.959 41.8408 161.42 40.1213 161.42 36.6826C161.42 34.8934 161.051 33.5649 160.313 32.6982C159.604 31.8319 158.569 31.3984 157.208 31.3984ZM25.9668 14.8349C22.0754 14.835 18.5853 16.0359 15.4971 18.4385C12.9628 20.4042 10.8507 23.0461 9.16113 26.3633C7.77629 29.0389 6.88305 31.6739 6.48145 34.2676C6.38454 34.9363 6.33595 35.5233 6.33594 36.0283C6.33595 37.2568 6.57215 37.871 7.04297 37.8711C7.91591 37.87 10.7548 34.2936 15.5596 27.1416C17.5399 24.193 19.4168 21.2308 21.1895 18.2549C21.6326 17.5041 22.3734 17.4012 23.4121 17.9473C23.6475 18.0701 23.8209 18.173 23.9316 18.2549C23.1561 19.4425 21.8819 21.729 20.1094 25.1142C21.2309 24.3909 22.0548 24.0293 22.5811 24.0293C23.1211 24.0293 23.5849 24.1724 23.9727 24.459C24.3742 24.7456 24.7552 25.1346 25.1152 25.626C25.7245 26.4723 26.376 27.7419 27.0684 29.4346C28.9516 28.6564 30.544 27.4279 31.8457 25.749C33.189 24.0153 33.8613 22.2815 33.8613 20.5478C33.8613 16.7392 31.2293 14.8349 25.9668 14.8349ZM50.1572 28.9433C48.8277 28.9433 47.6708 29.5712 46.6875 30.8271C45.7458 32.0284 45.2202 33.3939 45.1094 34.9228C46.8819 34.718 48.4057 34.2332 49.6797 33.4687C51.0225 32.6499 51.6941 31.6943 51.6943 30.6025C51.6943 29.4969 51.1818 28.9434 50.1572 28.9433ZM22.1035 26.2812C21.605 26.2812 21.2583 26.4321 21.0645 26.7324C20.8709 27.0187 20.7736 27.2642 20.7734 27.4687C20.7734 27.6597 20.7878 27.8785 20.8154 28.124C20.8432 28.3697 21.0165 28.6979 21.335 29.1074C21.6535 29.5168 22.1174 29.8108 22.7266 29.9883C22.8096 29.1695 22.8506 28.5207 22.8506 28.043C22.8506 26.8692 22.6019 26.2815 22.1035 26.2812Z" fill="black"/>
</svg>
